<!-- Created with Inkscape (http://www.inkscape.org/) -->
<svg width="1024" height="1024" version="1.1" xml:space="preserve" xmlns="http://www.w3.org/2000/svg" xmlns:cc="http://creativecommons.org/ns#" xmlns:dc="http://purl.org/dc/elements/1.1/" xmlns:rdf="http://www.w3.org/1999/02/22-rdf-syntax-ns#"><metadata><rdf:RDF><cc:Work rdf:about=""><dc:format>image/svg+xml</dc:format><dc:type rdf:resource="http://purl.org/dc/dcmitype/StillImage"/></cc:Work></rdf:RDF></metadata><g transform="translate(0 -56.52)" stroke-width=".32031"><g transform="matrix(4.1626 0 0 -4.1626 919.24 771.67)"><path d="m0 0s-0.325 1.994-0.515 1.976l-36.182-3.491c-2.879-0.278-5.115-2.574-5.317-5.459l-0.994-14.247-27.992-1.997-1.904 12.912c-0.424 2.872-2.932 5.037-5.835 5.037h-38.188c-2.902 0-5.41-2.165-5.834-5.037l-1.905-12.912-27.992 1.997-0.994 14.247c-0.202 2.886-2.438 5.182-5.317 5.46l-36.2 3.49c-0.187 0.018-0.324-1.978-0.511-1.978l-0.049-7.83 30.658-4.944 1.004-14.374c0.203-2.91 2.551-5.263 5.463-5.472l38.551-2.75c0.146-0.01 0.29-0.016 0.434-0.016 2.897 0 5.401 2.166 5.825 5.038l1.959 13.286h28.005l1.959-13.286c0.423-2.871 2.93-5.037 5.831-5.037 0.142 0 0.284 5e-3 0.423 0.015l38.556 2.75c2.911 0.209 5.26 2.562 5.463 5.472l1.003 14.374 30.645 4.966z" fill="#fff"/></g><g transform="matrix(4.1626 0 0 -4.1626 104.7 525.91)"><path d="m0 0v-59.041c0.108-1e-3 0.216-5e-3 0.323-0.015l36.196-3.49c1.896-0.183 3.382-1.709 3.514-3.609l1.116-15.978 31.574-2.253 2.175 14.747c0.282 1.912 1.922 3.329 3.856 3.329h38.188c1.933 0 3.573-1.417 3.855-3.329l2.175-14.747 31.575 2.253 1.115 15.978c0.133 1.9 1.618 3.425 3.514 3.609l36.182 3.49c0.107 0.01 0.214 0.014 0.322 0.015v4.711l0.015 5e-3v54.325h0.134c4.795 6.12 9.232 12.569 13.487 19.449-5.651 9.62-12.575 18.217-19.976 26.182-6.864-3.455-13.531-7.369-19.828-11.534-3.151 3.132-6.7 5.694-10.186 8.372-3.425 2.751-7.285 4.768-10.946 7.118 1.09 8.117 1.629 16.108 1.846 24.448-9.446 4.754-19.519 7.906-29.708 10.17-4.068-6.837-7.788-14.241-11.028-21.479-3.842 0.642-7.702 0.88-11.567 0.926v6e-3c-0.027 0-0.052-6e-3 -0.075-6e-3 -0.024 0-0.049 6e-3 -0.073 6e-3v-6e-3c-3.872-0.046-7.729-0.284-11.572-0.926-3.238 7.238-6.956 14.642-11.03 21.479-10.184-2.264-20.258-5.416-29.703-10.17 0.216-8.34 0.755-16.331 1.848-24.448-3.668-2.35-7.523-4.367-10.949-7.118-3.481-2.678-7.036-5.24-10.188-8.372-6.297 4.165-12.962 8.079-19.828 11.534-7.401-7.965-14.321-16.562-19.974-26.182 4.253-6.88 8.693-13.329 13.487-19.449z" fill="#478cbf"/></g><g transform="matrix(4.1626 0 0 -4.1626 784.07 817.24)"><path d="m0 0-1.121-16.063c-0.135-1.936-1.675-3.477-3.611-3.616l-38.555-2.751c-0.094-7e-3 -0.188-0.01-0.281-0.01-1.916 0-3.569 1.406-3.852 3.33l-2.211 14.994h-31.459l-2.211-14.994c-0.297-2.018-2.101-3.469-4.133-3.32l-38.555 2.751c-1.936 0.139-3.476 1.68-3.611 3.616l-1.121 16.063-32.547 3.138c0.015-3.498 0.06-7.33 0.06-8.093 0-34.374 43.605-50.896 97.781-51.086h0.133c54.176 0.19 97.766 16.712 97.766 51.086 0 0.777 0.047 4.593 0.063 8.093z" fill="#478cbf"/></g><g transform="matrix(4.1626 0 0 -4.1626 389.21 625.67)"><path d="m0 0c0-12.052-9.765-21.815-21.813-21.815-12.042 0-21.81 9.763-21.81 21.815 0 12.044 9.768 21.802 21.81 21.802 12.048 0 21.813-9.758 21.813-21.802" fill="#fff"/></g><g transform="matrix(4.1626 0 0 -4.1626 367.37 631.06)"><path d="m0 0c0-7.994-6.479-14.473-14.479-14.473-7.996 0-14.479 6.479-14.479 14.473s6.483 14.479 14.479 14.479c8 0 14.479-6.485 14.479-14.479" fill="#414042"/></g><g transform="matrix(4.1626 0 0 -4.1626 511.99 724.74)"><path d="m0 0c-3.878 0-7.021 2.858-7.021 6.381v20.081c0 3.52 3.143 6.381 7.021 6.381s7.028-2.861 7.028-6.381v-20.081c0-3.523-3.15-6.381-7.028-6.381" fill="#fff"/></g><g transform="matrix(4.1626 0 0 -4.1626 634.79 625.67)"><path d="m0 0c0-12.052 9.765-21.815 21.815-21.815 12.041 0 21.808 9.763 21.808 21.815 0 12.044-9.767 21.802-21.808 21.802-12.05 0-21.815-9.758-21.815-21.802" fill="#fff"/></g><g transform="matrix(4.1626 0 0 -4.1626 656.64 631.06)"><path d="m0 0c0-7.994 6.477-14.473 14.471-14.473 8.002 0 14.479 6.479 14.479 14.473s-6.477 14.479-14.479 14.479c-7.994 0-14.471-6.485-14.471-14.479" fill="#414042"/></g></g><g transform="translate(-602.63 -1036.8)" fill="#3b57c2" stroke="#fff" style="paint-order:stroke fill markers"><g stroke-width="40"><path d="m870.74 1358.9c5.1376-84.682 14.14-118.8 41.339-156.69 42.625-59.377 126.44-91.432 224.07-85.696 119.94 7.046 196.66 63.24 216.47 158.54 4.8565 23.37 11.838 94.5 9.2756 94.5-0.3751 0-8.6513-1.9939-18.392-4.4309-128.44-32.136-267.83-36.301-400.71-11.974-19.762 3.6179-61.065 12.959-70.853 16.025-1.7527 0.5488-1.8174-0.01-1.1948-10.27z" style="paint-order:stroke fill markers"/><path d="m784.95 1390.3c4.2298-83.422 5.1896-94.087 10.272-114.14 21.411-84.46 90.87-137.18 206.32-156.6 21.592-3.6323 26.131-3.7556 14.742-0.4002-39.921 11.761-79.699 37.084-104.19 66.324-32.601 38.93-45.166 77.159-50.31 153.06-0.87596 12.925-1.9102 25.924-2.2983 28.888l-0.70564 5.3877-18.889 5.9098c-10.389 3.2504-26.679 8.8134-36.201 12.362-9.5214 3.5488-17.716 6.4525-18.211 6.4525-0.49449 0-0.73365-3.2625-0.53147-7.25z" style="paint-order:stroke fill markers"/><path d="m1430.8 1392.4c-8.25-3.1012-24.528-8.7163-36.174-12.478l-21.174-6.8394-0.6226-9.522c-2.8673-43.858-5.9022-71.264-10.096-91.172-15.658-74.323-65.096-126.91-142.93-152.03-11.435-3.6906-11.717-3.8457-6-3.2936 27.84 2.6884 68.48 12.914 97.893 24.631 76.831 30.606 123.49 90.25 130.51 166.84 1.5215 16.584 4.2923 75.344 3.9139 83l-0.3213 6.5z" style="paint-order:stroke fill markers"/><path d="m763.23 1504.1c-8.8285-2.8464-15.138-12.542-13.45-20.67 0.38269-1.8431 4.4499-11.451 9.0382-21.351s11.649-25.415 15.691-34.478l7.3487-16.478 10.465-4.1044c103.94-40.767 216.38-60.045 338.96-58.116 71.4 1.1238 128.8 7.8015 191.42 22.27 49.223 11.372 124.15 36.363 127.35 42.476 1.4357 2.7423 24.174 54.233 27.978 63.356 6.7027 16.076-2.6143 27.748-22.092 27.675-9.1267-0.034-10.169-0.3517-47.159-14.374-72.231-27.382-148.01-44.422-228.5-51.385-25.611-2.2151-96.869-2.5319-121.5-0.5401-52.768 4.267-102.31 12.465-151.5 25.069-35.05 8.9808-57.391 16.214-109.75 35.53-17.329 6.3932-26.239 7.7232-34.308 5.1216z" style="paint-order:stroke fill markers"/></g><path d="m1075.7 1106.3c0.2126-0.6894 0.6555-2.4828 0.9844-3.9852 1.4388-6.5726 9.1969-12.321 20.629-15.285 8.6947-2.2542 31.992-2.2456 40.44 0.015 11.261 3.013 20.5 11.217 20.5 18.203 0 2.295-0.057 2.3051-8.75 1.5542-11.297-0.9759-54.186-0.9774-65.47 0-6.8001 0.5876-8.6349 0.4775-8.3335-0.5z" stroke-width="20" style="paint-order:stroke fill markers"/></g><path d="m602.52 260.88c-18.999 5.1448-36.11 2.1594-43.535-7.5958-7.1783-9.43-7.2117-19.106-0.16475-47.748 1.7284-7.0251 3.2034-15.372 3.2778-18.55 0.13531-5.7766 0.13531-5.7766-3.3561-5.5129-3.9374 0.29739-8.3473 3.8918-14.686 11.971-7.4531 9.4984-20.406 34.808-22.797 44.543-1.6989 6.9188-7.1297 18.312-9.8272 20.616-4.8424 4.1365-17.862 4.4992-23.02 0.64145-2.9106-2.177-6.5884-8.7866-7.8791-14.16-1.6224-6.7546-1.0651-18.3 1.7024-35.268 3.8138-23.384 4.1059-26.635 2.5385-28.258-7.5449-7.8104-26.136 19.673-38.951 57.582-5.5611 16.45-8.0032 19.629-16.164 21.04-14.732 2.5468-21.122-3.3797-24.343-22.577-3.347-19.947 1.7615-59.353 10.444-80.563 3.3061-8.0764 4.6274-9.8742 9.5133-12.944 5.1889-3.2604 20.373-4.6558 24.693-2.2693 4.5238 2.4988 4.3579 3.9135-3.5279 30.078-4.6628 15.471-7.2594 28.66-5.6068 28.479 0.3966-0.0435 1.4245-1.8135 2.2843-3.9332 5.4842-13.521 21.703-34.985 32.504-43.015 20.664-15.364 45.176-16.042 48.529-1.3417 1.354 5.9366-2.0058 25.904-6.5637 39.008-1.3035 3.7476-2.4816 9.8414-1.985 10.268 0.26867 0.23092 2.688-3.7051 5.3763-8.7468 6.2096-11.646 17.578-24.804 18.644-25.839 0.14005-0.13602 4.8997-7.847 20.944-17.295 18.451-10.865 39.338-8.4249 41.988 4.9044 1.1534 5.8008-1.2894 21.685-5.7275 37.242-10.029 35.157-9.3578 44.832 3.0466 43.895 7.129-0.53845 14.456-5.6157 31.986-22.165 8.1514-7.6953 11.872-8.9332 16.272-5.4138 3.585 2.8674 3.8587 14.494 0.48346 20.539-5.8755 10.523-31.287 28.381-46.091 32.39z" fill="#fff"/></svg>
